<svg width="111" height="57" viewBox="0 0 111 57" fill="none" xmlns="http://www.w3.org/2000/svg">
<path d="M13.824 11.92C16.32 11.92 18.48 12.272 20.304 12.976C22.16 13.68 23.84 14.752 25.344 16.192L21.696 20.464C19.424 18.608 16.992 17.68 14.4 17.68C13.024 17.68 11.936 17.968 11.136 18.544C10.336 19.088 9.936 19.888 9.936 20.944C9.936 21.68 10.112 22.288 10.464 22.768C10.816 23.216 11.44 23.648 12.336 24.064C13.232 24.48 14.576 24.976 16.368 25.552C19.76 26.64 22.256 27.984 23.856 29.584C25.456 31.152 26.256 33.392 26.256 36.304C26.256 38.384 25.728 40.224 24.672 41.824C23.616 43.392 22.096 44.624 20.112 45.52C18.128 46.384 15.776 46.816 13.056 46.816C10.336 46.816 7.92 46.384 5.808 45.52C3.728 44.656 1.936 43.504 0.432 42.064L4.416 37.696C5.696 38.784 7.008 39.6 8.352 40.144C9.728 40.688 11.216 40.96 12.816 40.96C14.448 40.96 15.728 40.608 16.656 39.904C17.616 39.168 18.096 38.16 18.096 36.88C18.096 36.048 17.92 35.36 17.568 34.816C17.216 34.24 16.608 33.728 15.744 33.28C14.88 32.832 13.632 32.352 12 31.84C8.32 30.72 5.696 29.344 4.128 27.712C2.592 26.08 1.824 24.016 1.824 21.52C1.824 19.6 2.336 17.92 3.36 16.48C4.384 15.008 5.808 13.888 7.632 13.12C9.456 12.32 11.52 11.92 13.824 11.92ZM38.4608 12.736V39.76H51.4208L50.6048 46H30.5888V12.736H38.4608ZM64.4621 12.736C69.6781 12.736 73.8541 13.92 76.9901 16.288C80.1581 18.624 81.7421 22.928 81.7421 29.2C81.7421 35.376 80.2061 39.728 77.1341 42.256C74.0621 44.752 70.0781 46 65.1821 46H55.1981V12.736H64.4621ZM63.0701 18.448V40.288H65.6621C68.2541 40.288 70.2221 39.488 71.5661 37.888C72.9101 36.256 73.5821 33.36 73.5821 29.2C73.5821 26.352 73.2461 24.144 72.5741 22.576C71.9021 21.008 70.9901 19.936 69.8381 19.36C68.6861 18.752 67.2621 18.448 65.5661 18.448H63.0701ZM97.1678 11.92C99.6638 11.92 101.824 12.272 103.648 12.976C105.504 13.68 107.184 14.752 108.688 16.192L105.04 20.464C102.768 18.608 100.336 17.68 97.7438 17.68C96.3678 17.68 95.2798 17.968 94.4798 18.544C93.6798 19.088 93.2798 19.888 93.2798 20.944C93.2798 21.68 93.4558 22.288 93.8078 22.768C94.1598 23.216 94.7838 23.648 95.6797 24.064C96.5758 24.48 97.9198 24.976 99.7118 25.552C103.104 26.64 105.6 27.984 107.2 29.584C108.8 31.152 109.6 33.392 109.6 36.304C109.6 38.384 109.072 40.224 108.016 41.824C106.96 43.392 105.44 44.624 103.456 45.52C101.472 46.384 99.1198 46.816 96.3998 46.816C93.6798 46.816 91.2638 46.384 89.1518 45.52C87.0718 44.656 85.2798 43.504 83.7758 42.064L87.7598 37.696C89.0398 38.784 90.3518 39.6 91.6958 40.144C93.0718 40.688 94.5598 40.96 96.1598 40.96C97.7918 40.96 99.0718 40.608 99.9998 39.904C100.96 39.168 101.44 38.16 101.44 36.88C101.44 36.048 101.264 35.36 100.912 34.816C100.56 34.24 99.9518 33.728 99.0878 33.28C98.2238 32.832 96.9758 32.352 95.3438 31.84C91.6638 30.72 89.0398 29.344 87.4718 27.712C85.9358 26.08 85.1678 24.016 85.1678 21.52C85.1678 19.6 85.6798 17.92 86.7038 16.48C87.7278 15.008 89.1518 13.888 90.9758 13.12C92.7998 12.32 94.8638 11.92 97.1678 11.92Z" fill="white"/>
<path d="M0 53H25V57H0V53Z" fill="black"/>
</svg>
